<svg height="512pt" viewBox="-27 0 512 512" width="512pt" xmlns="http://www.w3.org/2000/svg"><path d="m352.1875 392.265625c-46.132812 0-89.125-13.4375-125.28125-36.613281l13.0625-43.542969-84.292969-28.097656c-22.757812-35.929688-35.941406-78.523438-35.941406-124.199219 0-35.179688 7.828125-68.527344 21.820313-98.414062-79.183594 37.058593-134.039063 117.433593-134.039063 210.632812 0 128.378906 104.074219 232.453125 232.453125 232.453125 93.199219 0 173.574219-54.855469 210.632812-134.039063-29.886718 13.992188-63.234374 21.820313-98.414062 21.820313zm0 0" fill="#ffdb7e"/><path d="m280.046875 474.648438c-128.378906 0-232.453125-104.070313-232.453125-232.453126 0-67.402343 28.695312-128.09375 74.53125-170.546874-68.582031 40.417968-114.609375 115.015624-114.609375 200.382812 0 128.378906 104.074219 232.453125 232.453125 232.453125 60.972656 0 116.449219-23.480469 157.90625-61.886719-34.546875 20.363282-74.820312 32.050782-117.828125 32.050782zm0 0" fill="#ffd15e"/><path d="m7.515625 191.875 136.265625 24.046875s-32.0625-168.328125 40.078125-168.328125c40.078125 0 64.125 80.15625 64.125 80.15625s0-120.234375-72.140625-120.234375c-110.214844 0-168.328125 184.359375-168.328125 184.359375zm0 0" fill="#e99695"/><path d="m202.976562 14.429688c-7.667968-4.355469-16.632812-6.914063-27.132812-6.914063-110.214844 0-168.328125 184.359375-168.328125 184.359375l42.6875 7.535156c11.980469-37.363281 64.972656-185.273437 152.773437-184.980468zm0 0" fill="#e37c7b"/><path d="m272.03125 135.765625c0 13.28125-10.765625 24.046875-24.046875 24.046875s-24.046875-10.765625-24.046875-24.046875 10.765625-24.046875 24.046875-24.046875 24.046875 10.765625 24.046875 24.046875zm0 0" fill="#f4f0f9"/><path d="m261.261719 146.535156c-13.28125 0-24.046875-10.765625-24.046875-24.046875 0-3.1875.625-6.230469 1.753906-9.015625-8.8125 3.566406-15.03125 12.203125-15.03125 22.292969 0 13.28125 10.765625 24.046875 24.046875 24.046875 10.089844 0 18.722656-6.21875 22.292969-15.03125-2.785156 1.128906-5.828125 1.753906-9.015625 1.753906zm0 0" fill="#e8e2f3"/><path d="m455.917969 365.132812c-2.238281-2.234374-5.632813-2.832031-8.5-1.492187-29.925781 14.007813-61.96875 21.109375-95.230469 21.109375-41.257812 0-81.390625-11.199219-116.433594-32.4375l11.414063-38.042969c1.167969-3.890625-.96875-8.003906-4.824219-9.289062l-81.730469-27.242188c-10.722656-17.378906-18.972656-36.023437-24.601562-55.554687 2.144531.375 4.285156.792968 6.433593 1.132812 5.09375.808594 9.699219-3.628906 8.71875-8.800781-.054687-.28125-5.40625-28.714844-6.691406-61.511719-1.648437-42.136718 3.980469-72.265625 16.28125-87.125 6-7.246094 13.558594-10.769531 23.105469-10.769531 22.378906 0 40.300781 33.710937 48.757813 53.101563-9.652344 5.40625-16.195313 15.726562-16.195313 27.554687 0 17.402344 14.160156 31.5625 31.5625 31.5625s31.5625-14.160156 31.5625-31.5625c0-15.359375-11.03125-28.183594-25.582031-30.988281-2.003906-17.71875-6.488282-41.5-16.550782-61.933594-13.800781-28.027344-35.09375-42.84375-61.570312-42.84375-26.933594 0-53.035156 10.269531-77.582031 30.523438-19.171875 15.820312-37.449219 37.769531-54.316407 65.238281-28.464843 46.347656-42.992187 91.9375-43.597656 93.855469-1.277344 4.046874 1.183594 8.472656 5.285156 9.53125 1.742188.453124 3.574219.65625 5.34375.96875-7.277343 23.191406-10.976562 47.347656-10.976562 71.914062 0 64.097656 24.960938 124.359375 70.285156 169.683594 45.324219 45.324218 105.585938 70.285156 169.683594 70.285156 30.945312 0 61.066406-5.808594 89.53125-17.265625 3.796875-1.527344 5.695312-5.976563 4.164062-9.777344-1.53125-3.796875-5.976562-5.691406-9.777343-4.164062-26.667969 10.734375-54.90625 16.175781-83.917969 16.175781-124.03125 0-224.9375-100.90625-224.9375-224.9375 0-23.695312 3.652344-46.976562 10.871094-69.28125l93.765625 16.546875c6.207031 24.328125 16.175781 47.445313 29.660156 68.734375.925781 1.464844 2.328125 2.5625 3.96875 3.109375l77.378906 25.792969-10.964843 36.558594c-.964844 3.210937.316406 6.675781 3.140624 8.484374 38.578126 24.730469 83.304688 37.804688 129.335938 37.804688 28.367188 0 55.90625-4.84375 82.128906-14.425781-18.910156 32.433593-45.574218 59.578125-78.003906 79.222656-3.230469 1.957031-4.515625 6.152344-2.929688 9.582031 1.859376 4.003906 6.929688 5.5625 10.714844 3.273438 40.839844-24.738282 73.105469-60.632813 93.3125-103.800782 1.339844-2.863281.742188-6.261718-1.492187-8.5zm-191.402344-229.367187c0 9.117187-7.414063 16.53125-16.53125 16.53125s-16.53125-7.414063-16.53125-16.53125 7.414063-16.53125 16.53125-16.53125 16.53125 7.414063 16.53125 16.53125zm-88.671875-120.734375c20.941406 0 36.671875 11.269531 48.085938 34.453125 4.40625 8.941406 7.644531 18.691406 10.023437 28.234375-12.449219-20.625-29.085937-37.640625-50.09375-37.640625-14.109375 0-25.78125 5.457031-34.6875 16.222656-29.101563 35.167969-19.203125 120.222657-14.566406 150.371094l-117.105469-20.664063c12.679688-35.015624 67.785156-170.976562 158.34375-170.976562zm0 0"/><path d="m100.226562 303.285156c-8.398437 3.546875-18.117187-.394531-21.664062-8.789062-1.59375-3.773438-6.078125-5.589844-9.847656-3.996094-3.773438 1.589844-5.589844 6.074219-3.996094 9.84375 5.085938 12.035156 16.804688 19.273438 29.113281 19.273438 4.089844 0 8.25-.800782 12.25-2.488282 7.761719-3.285156 13.785157-9.394531 16.953125-17.207031 3.171875-7.8125 3.109375-16.390625-.175781-24.152344-1.613281-3.824219-6.023437-5.613281-9.847656-3.996093-3.820313 1.617187-5.609375 6.023437-3.992188 9.847656 1.71875 4.066406 1.75 8.558594.089844 12.652344-1.660156 4.089843-4.816406 7.292968-8.882813 9.011718zm0 0"/><path d="m288.0625 287.5625h16.429688l-22.296876 27.867188c-3.863281 4.832031-.296874 12.210937 5.867188 12.210937h32.0625c4.152344 0 7.515625-3.363281 7.515625-7.515625s-3.363281-7.515625-7.515625-7.515625h-16.429688l22.296876-27.867187c3.863281-4.832032.300781-12.210938-5.867188-12.210938h-32.0625c-4.152344 0-7.515625 3.363281-7.515625 7.515625s3.367187 7.515625 7.515625 7.515625zm0 0"/><path d="m344.171875 255.5h16.429687l-22.296874 27.867188c-3.863282 4.832031-.296876 12.210937 5.867187 12.210937h32.0625c4.152344 0 7.515625-3.363281 7.515625-7.515625s-3.363281-7.515625-7.515625-7.515625h-16.425781l22.292968-27.867187c3.863282-4.832032.300782-12.210938-5.867187-12.210938h-32.0625c-4.152344 0-7.515625 3.363281-7.515625 7.515625s3.367188 7.515625 7.515625 7.515625zm0 0"/><path d="m400.28125 223.4375h16.429688l-22.296876 27.867188c-3.863281 4.832031-.296874 12.210937 5.867188 12.210937h32.0625c4.152344 0 7.515625-3.363281 7.515625-7.515625s-3.363281-7.515625-7.515625-7.515625h-16.425781l22.292969-27.867187c3.863281-4.832032.300781-12.210938-5.867188-12.210938h-32.0625c-4.152344 0-7.515625 3.363281-7.515625 7.515625s3.367187 7.515625 7.515625 7.515625zm0 0"/></svg>